<svg width="50" height="58" viewBox="0 0 50 58" fill="none" xmlns="http://www.w3.org/2000/svg">
<g clip-path="url(#clip0_140_7)">
<path d="M16.5179 32.1429H12.0536C11.317 32.1429 10.7143 31.5402 10.7143 30.8036V26.3393C10.7143 25.6027 11.317 25 12.0536 25H16.5179C17.2545 25 17.8571 25.6027 17.8571 26.3393V30.8036C17.8571 31.5402 17.2545 32.1429 16.5179 32.1429ZM28.5714 30.8036V26.3393C28.5714 25.6027 27.9687 25 27.2321 25H22.7679C22.0312 25 21.4286 25.6027 21.4286 26.3393V30.8036C21.4286 31.5402 22.0312 32.1429 22.7679 32.1429H27.2321C27.9687 32.1429 28.5714 31.5402 28.5714 30.8036ZM39.2857 30.8036V26.3393C39.2857 25.6027 38.683 25 37.9464 25H33.4821C32.7455 25 32.1429 25.6027 32.1429 26.3393V30.8036C32.1429 31.5402 32.7455 32.1429 33.4821 32.1429H37.9464C38.683 32.1429 39.2857 31.5402 39.2857 30.8036ZM28.5714 41.5179V37.0536C28.5714 36.317 27.9687 35.7143 27.2321 35.7143H22.7679C22.0312 35.7143 21.4286 36.317 21.4286 37.0536V41.5179C21.4286 42.2545 22.0312 42.8571 22.7679 42.8571H27.2321C27.9687 42.8571 28.5714 42.2545 28.5714 41.5179ZM17.8571 41.5179V37.0536C17.8571 36.317 17.2545 35.7143 16.5179 35.7143H12.0536C11.317 35.7143 10.7143 36.317 10.7143 37.0536V41.5179C10.7143 42.2545 11.317 42.8571 12.0536 42.8571H16.5179C17.2545 42.8571 17.8571 42.2545 17.8571 41.5179ZM39.2857 41.5179V37.0536C39.2857 36.317 38.683 35.7143 37.9464 35.7143H33.4821C32.7455 35.7143 32.1429 36.317 32.1429 37.0536V41.5179C32.1429 42.2545 32.7455 42.8571 33.4821 42.8571H37.9464C38.683 42.8571 39.2857 42.2545 39.2857 41.5179ZM50 12.5V51.7857C50 54.7433 47.6004 57.1429 44.6429 57.1429H5.35714C2.39955 57.1429 0 54.7433 0 51.7857V12.5C0 9.54241 2.39955 7.14286 5.35714 7.14286H10.7143V1.33929C10.7143 0.602679 11.317 0 12.0536 0H16.5179C17.2545 0 17.8571 0.602679 17.8571 1.33929V7.14286H32.1429V1.33929C32.1429 0.602679 32.7455 0 33.4821 0H37.9464C38.683 0 39.2857 0.602679 39.2857 1.33929V7.14286H44.6429C47.6004 7.14286 50 9.54241 50 12.5ZM44.6429 51.1161V17.8571H5.35714V51.1161C5.35714 51.4844 5.65848 51.7857 6.02679 51.7857H43.9732C44.3415 51.7857 44.6429 51.4844 44.6429 51.1161Z" fill="white"/>
</g>
<defs>
<clipPath id="clip0_140_7">
<rect width="50" height="57.1429" fill="white"/>
</clipPath>
</defs>
</svg>
