<svg width="612" height="490" viewBox="0 0 612 490" fill="none" xmlns="http://www.w3.org/2000/svg">
<g clip-path="url(#clip0_51_84)">
<path d="M230.074 185.76C231.891 156.283 246.617 127.189 272.149 109.389C267.176 99.0527 256.944 91.8749 244.8 91.8749H216.686L246.043 70.8202C252.928 65.9394 254.554 56.3691 249.581 49.4784L240.688 37.037C235.811 30.1464 226.249 28.5195 219.364 33.496L188.764 55.412L199.761 26.1269C202.725 18.1835 198.709 9.37882 190.772 6.41203L176.428 1.05265C168.491 -1.91414 159.694 2.10539 156.729 10.0487L137.7 60.7714L118.671 9.95304C115.706 2.00968 106.909 -2.00985 98.9719 0.95695L84.6281 6.31632C76.6913 9.28312 72.675 18.1835 75.735 26.0312L86.7319 55.3163L56.0363 33.496C49.1512 28.6152 39.5887 30.1464 34.7119 37.037L25.8188 49.4784C20.9419 56.3691 22.4719 65.9394 29.3569 70.8202L58.7138 91.8749H30.6C13.6744 91.8749 0 105.56 0 122.5V459.375C0 476.314 13.6744 490 30.6 490H192.111C186.851 480.908 183.6 470.572 183.6 459.375V245C183.6 216.385 203.49 192.363 230.074 185.76ZM214.2 459.375C214.2 476.314 227.874 490 244.8 490H397.8V367.5H214.2V459.375ZM428.4 490H581.4C598.326 490 612 476.314 612 459.375V367.5H428.4V490ZM581.4 214.375H561.892C564.379 207.101 566.1 199.541 566.1 191.598C566.1 157.623 540.281 122.5 497.154 122.5C451.159 122.5 424.575 168.15 413.1 194.564C401.529 168.15 374.946 122.5 329.046 122.5C285.919 122.5 260.1 157.623 260.1 191.598C260.1 199.541 261.726 207.101 264.307 214.375H244.8C227.874 214.375 214.2 228.06 214.2 245V336.875H397.8V214.375H412.431L413.1 214.184L413.769 214.375H428.4V336.875H612V245C612 228.06 598.326 214.375 581.4 214.375ZM321.3 214.375C318.718 213.035 316.423 211.504 314.415 209.781C307.434 203.656 306 196.574 306 191.598C306 182.314 312.12 168.437 329.046 168.437C346.928 168.437 363.088 194.66 371.599 214.375H321.3ZM511.785 209.781C509.777 211.504 507.482 213.035 504.9 214.375H454.601C463.016 194.947 479.273 168.437 497.154 168.437C514.08 168.437 520.2 182.314 520.2 191.598C520.2 196.574 518.766 203.656 511.785 209.781Z" fill="#EDEDED" fill-opacity="0.1"/>
</g>
<defs>
<clipPath id="clip0_51_84">
<rect width="612" height="490" fill="white"/>
</clipPath>
</defs>
</svg>
