<svg width="830" height="831" viewBox="0 0 830 831" fill="none" xmlns="http://www.w3.org/2000/svg">
<path d="M415 0.390625C185.796 0.390625 0 186.236 0 415.5C0 644.764 185.796 830.609 415 830.609C644.204 830.609 830 644.764 830 415.5C830 186.236 644.204 0.390625 415 0.390625ZM396.024 402.494C391.188 410.562 382.469 415.5 373.065 415.5H372.546C365.451 415.5 358.64 418.329 353.62 423.35L344.149 432.824C338.928 438.046 338.928 446.533 344.149 451.755L353.62 461.229C358.64 466.25 361.468 473.063 361.468 480.16V495.844C361.468 510.64 349.487 522.625 334.694 522.625H324.47C314.329 522.625 305.058 516.901 300.524 507.812L262.672 432.104C258.589 423.936 247.695 422.162 241.235 428.623L208.655 461.195C203.634 466.217 196.824 469.046 189.729 469.046H85.0248C82.1968 451.571 80.3226 433.778 80.3226 415.5C80.3226 230.91 230.459 80.7344 415 80.7344C450.995 80.7344 485.617 86.6095 518.131 97.1714L434.194 161.664C425.643 167.372 426.446 180.177 435.633 184.78L453.756 193.835C462.825 198.371 468.548 207.644 468.548 217.787V348.547C468.548 355.945 462.558 361.938 455.161 361.938H450.041C444.97 361.938 440.335 359.075 438.076 354.539C435.466 349.317 428.103 349.032 425.091 354.037L396.024 402.494ZM682.742 586.95C682.742 594.047 679.914 600.86 674.894 605.881L658.879 621.9C653.859 626.921 647.049 629.75 639.953 629.75H614.585C607.49 629.75 600.679 626.921 595.659 621.9L573.888 600.123C568.418 594.652 561.626 590.692 554.171 588.627C546.717 586.561 538.855 586.463 531.351 588.34L495.758 597.244C493.632 597.78 491.457 598.048 489.265 598.048H471.962C464.867 598.048 458.056 595.219 453.036 590.197L433.106 570.262C430.597 567.748 429.189 564.34 429.19 560.788V543.715C429.19 538.242 432.52 533.321 437.607 531.279L503.439 504.933C506.752 503.61 509.898 501.886 512.793 499.827L552.469 471.556C554.735 469.941 557.45 469.075 560.233 469.079H580.465C585.87 469.079 590.756 472.326 592.831 477.331L601.783 498.84C602.292 500.059 603.149 501.1 604.248 501.833C605.347 502.566 606.638 502.957 607.958 502.958H614.317C617.296 502.958 619.923 500.982 620.743 498.137L627.771 473.917C628.608 471.054 631.218 469.096 634.197 469.096H644.338C648.036 469.096 651.031 472.092 651.031 475.791V497.434C651.031 500.982 652.437 504.397 654.947 506.908L674.877 526.843C679.897 531.865 682.725 538.677 682.725 545.774V586.95H682.742Z" fill="#EDEDED" fill-opacity="0.2"/>
</svg>
