<svg width="254" height="40" viewBox="0 0 254 40" fill="none" xmlns="http://www.w3.org/2000/svg">
<g clip-path="url(#clip0_45_148)">
<path d="M217.584 19.1656C217.304 17.893 216.715 16.7091 215.868 15.7192C214.676 14.3938 213.101 13.4726 211.361 13.0837C208.799 12.5451 206.181 12.3173 203.564 12.4054C199.736 12.4054 197.272 12.8498 195.517 13.5204C194.68 13.865 193.915 14.365 193.264 14.9941V13.7075H188.305V39.6568H193.287V23.1734C193.287 18.8771 197.685 17.1773 202.067 17.1773H204.266C208.648 17.1773 213.085 18.8771 213.085 23.1734V39.6568H217.997V25.5048C218.08 23.3837 217.947 21.2596 217.599 19.1656H217.584Z" fill="#EC1C24"/>
<path d="M133.825 12.3276H138.784C138.754 10.2064 138.898 8.08629 139.213 5.98841C139.415 4.90202 139.936 3.90044 140.71 3.11122C141.679 2.01578 142.939 1.21811 144.344 0.811038C146.768 0.273166 149.245 0.01159 151.728 0.0313105H156.406L151.923 4.39776H149.965C143.377 4.39776 143.837 8.6161 143.837 12.351H155.431L150.753 17.1229H143.735V39.6336H138.729V17.0995H133.825V12.3276Z" fill="#EC1C24"/>
<path d="M128.835 3.79736V8.88119H133.794V3.79736H128.835Z" fill="#EC1C24"/>
<path d="M90.55 26.0506C90.629 28.5996 90.2649 31.1428 89.4739 33.5672C88.7488 35.5399 86.2849 40 74.3083 40C62.3316 40 59.8677 35.5399 59.1425 33.5672C57.7078 28.6589 57.7078 23.4424 59.1425 18.5341C59.8677 16.5536 62.3316 12.1013 74.3083 12.1013C86.2849 12.1013 88.7488 16.5536 89.4739 18.5341C90.2661 20.9582 90.6302 23.5017 90.55 26.0506ZM84.3122 20.0857C84.0936 19.5434 83.7559 19.0572 83.324 18.6631C82.8921 18.269 82.377 17.977 81.817 17.8089C80.5305 17.4035 78.2771 17.1618 74.3394 17.1072C70.4018 17.0526 68.1484 17.4035 66.8618 17.8089C66.3018 17.977 65.7868 18.269 65.3549 18.6631C64.923 19.0572 64.5853 19.5434 64.3667 20.0857C63.327 23.9917 63.327 28.1018 64.3667 32.0078C64.5853 32.5501 64.923 33.0363 65.3549 33.4304C65.7868 33.8245 66.3018 34.1165 66.8618 34.2846C68.1484 34.6978 70.4018 34.9317 74.3394 34.9941C78.2771 34.9317 80.5305 34.6978 81.817 34.2846C82.377 34.1165 82.8921 33.8245 83.324 33.4304C83.7559 33.0363 84.0936 32.5501 84.3122 32.0078C85.3519 28.1018 85.3519 23.9917 84.3122 20.0857Z" fill="#0060AE"/>
<path d="M184.648 26.0506C184.731 28.5998 184.367 31.1438 183.572 33.5672C182.854 35.5399 180.383 40 168.414 40C156.445 40 153.965 35.5399 153.248 33.5672C151.813 28.6589 151.813 23.4424 153.248 18.5341C153.965 16.5536 156.437 12.1013 168.414 12.1013C180.39 12.1013 182.854 16.5536 183.572 18.5341C184.368 20.9572 184.732 23.5014 184.648 26.0506ZM178.41 20.0857C178.191 19.5434 177.854 19.0572 177.422 18.6631C176.99 18.269 176.475 17.977 175.915 17.8089C174.636 17.4035 172.383 17.1618 168.445 17.1072C164.507 17.0526 162.207 17.4035 160.967 17.8089C160.407 17.977 159.892 18.269 159.46 18.6631C159.028 19.0572 158.691 19.5434 158.472 20.0857C157.422 23.9904 157.422 28.1031 158.472 32.0078C158.691 32.5501 159.028 33.0363 159.46 33.4304C159.892 33.8245 160.407 34.1165 160.967 34.2846C162.246 34.6978 164.5 34.9317 168.445 34.9941C172.344 34.9317 174.636 34.6978 175.915 34.2846C176.475 34.1165 176.99 33.8245 177.422 33.4304C177.854 33.0363 178.191 32.5501 178.41 32.0078C179.46 28.1031 179.46 23.9904 178.41 20.0857Z" fill="#EC1C24"/>
<path d="M54.0976 19.1579C53.8171 17.8851 53.2219 16.7028 52.3666 15.7193C51.1555 14.3995 49.569 13.4824 47.8208 13.0917C45.2588 12.5499 42.6408 12.3195 40.0235 12.4055C36.1249 12.4055 33.5361 12.7174 31.7662 13.3802C30.2987 13.9165 29.0453 14.9154 28.195 16.2262C27.2168 14.8642 25.8332 13.8462 24.2418 13.3178C22.4094 12.7018 19.002 12.3977 14.6979 12.3977C11.4698 12.3977 9.23979 12.6238 7.92205 13.0994C6.83166 13.5405 5.84219 14.1983 5.01365 15.0332V13.7076H0.0467758V39.6492H4.99806V23.1345C4.99806 18.8304 9.37234 17.1306 13.7934 17.1306H16.0078C20.4211 17.1306 24.8422 18.8304 24.8422 23.1345V39.6102H29.7934V23.1345C29.7934 18.8304 34.1132 17.1306 38.5342 17.1306H40.7487C45.1697 17.1306 49.5986 18.8304 49.5986 23.1345V39.6102H54.5421V25.4581C54.6216 23.3371 54.4884 21.2134 54.1444 19.1189L54.0976 19.1579Z" fill="#0060AE"/>
<path d="M251.026 27.9454H253.56C253.599 27.3372 253.615 26.7056 253.615 26.0506C253.699 23.5014 253.335 20.9572 252.539 18.5341C251.821 16.5536 249.35 12.1013 237.381 12.1013C225.412 12.1013 222.932 16.5536 222.215 18.5341C220.78 23.4424 220.78 28.6589 222.215 33.5672C222.932 35.5399 225.404 40 237.381 40C249.357 40 251.821 35.5399 252.539 33.5672C252.601 33.3957 252.664 33.2085 252.726 33.0292H246.745C246.243 33.6162 245.587 34.0511 244.851 34.2846C243.572 34.6978 241.318 34.9317 237.381 34.9941C233.435 34.9317 231.182 34.6978 229.903 34.2846C229.343 34.1165 228.828 33.8245 228.396 33.4304C227.964 33.0363 227.627 32.5501 227.408 32.0078C226.97 30.7042 226.725 29.3434 226.683 27.9688H251.026V27.9454ZM229.903 17.8089C231.182 17.4035 233.435 17.1618 237.381 17.1072C241.326 17.0526 243.572 17.4035 244.851 17.8089C245.411 17.977 245.926 18.269 246.358 18.6631C246.789 19.0572 247.127 19.5434 247.346 20.0857C247.707 21.1143 247.927 22.1871 248.001 23.2748H226.753C226.827 22.1871 227.047 21.1143 227.408 20.0857C227.627 19.5434 227.964 19.0572 228.396 18.6631C228.828 18.269 229.343 17.977 229.903 17.8089Z" fill="#EC1C24"/>
<path d="M128.835 12.3274V39.61H133.794V12.3274H128.835Z" fill="#0060AE"/>
<path d="M124.266 18.5341C123.54 16.5536 121.076 12.1014 109.1 12.1014C104.515 12.1014 101.302 12.7563 99.1036 13.6608V0H94.1523V39.6803H99.1036V38.425C101.334 39.3451 104.515 39.9844 109.1 39.9844C121.076 39.9844 123.54 35.5244 124.266 33.5517C125.7 28.6433 125.7 23.4269 124.266 18.5185V18.5341ZM119.073 32.0078C118.854 32.5501 118.516 33.0364 118.084 33.4305C117.652 33.8246 117.137 34.1165 116.577 34.2846C115.291 34.6979 113.037 34.9318 109.1 34.9942C105.162 34.9318 103.642 34.6979 102.332 34.2846C101.77 34.1175 101.254 33.8261 100.82 33.4319C100.387 33.0377 100.048 32.551 99.8288 32.0078C99.3776 30.6566 99.1331 29.245 99.1036 27.8207V24.2885C99.1326 22.8617 99.377 21.4474 99.8288 20.0936C100.048 19.5504 100.387 19.0637 100.82 18.6695C101.254 18.2753 101.77 17.9839 102.332 17.8168C103.61 17.4113 105.162 17.1696 109.1 17.115C113.037 17.0604 115.291 17.4113 116.577 17.8168C117.137 17.9849 117.652 18.2768 118.084 18.6709C118.516 19.065 118.854 19.5513 119.073 20.0936C120.112 23.9996 120.112 28.1096 119.073 32.0156V32.0078Z" fill="#0060AE"/>
</g>
<defs>
<clipPath id="clip0_45_148">
<rect width="253.615" height="40" fill="white"/>
</clipPath>
</defs>
</svg>
