<svg width="254" height="40" viewBox="0 0 254 40" fill="none" xmlns="http://www.w3.org/2000/svg">
<g clip-path="url(#clip0_42_170)">
<path d="M217.584 19.1657C217.304 17.8931 216.715 16.7092 215.868 15.7193C214.676 14.3938 213.101 13.4726 211.361 13.0838C208.799 12.5452 206.181 12.3174 203.564 12.4055C199.736 12.4055 197.272 12.8499 195.517 13.5205C194.68 13.865 193.915 14.3651 193.264 14.9941V13.7076H188.305V39.6569H193.287V23.1735C193.287 18.8772 197.685 17.1774 202.067 17.1774H204.266C208.648 17.1774 213.085 18.8772 213.085 23.1735V39.6569H217.997V25.5048C218.08 23.3838 217.947 21.2597 217.599 19.1657H217.584Z" fill="#EC1C24"/>
<path d="M133.825 12.3275H138.784C138.754 10.2063 138.898 8.08616 139.213 5.98829C139.415 4.9019 139.936 3.90032 140.71 3.1111C141.679 2.01566 142.939 1.21799 144.344 0.810916C146.768 0.273044 149.245 0.0114679 151.728 0.0311885H156.406L151.923 4.39764H149.965C143.377 4.39764 143.837 8.61597 143.837 12.3509H155.431L150.753 17.1228H143.735V39.6335H138.729V17.0994H133.825V12.3275Z" fill="#EC1C24"/>
<path d="M128.835 3.79724V8.88107H133.794V3.79724H128.835Z" fill="#EC1C24"/>
<path d="M90.55 26.0507C90.629 28.5996 90.2649 31.1429 89.4739 33.5673C88.7488 35.54 86.2849 40 74.3083 40C62.3316 40 59.8677 35.54 59.1425 33.5673C57.7078 28.6589 57.7078 23.4425 59.1425 18.5341C59.8677 16.5536 62.3316 12.1014 74.3083 12.1014C86.2849 12.1014 88.7488 16.5536 89.4739 18.5341C90.2661 20.9582 90.6302 23.5017 90.55 26.0507ZM84.3122 20.0858C84.0936 19.5435 83.7559 19.0573 83.324 18.6631C82.8921 18.269 82.377 17.9771 81.817 17.809C80.5305 17.4035 78.2771 17.1618 74.3394 17.1072C70.4018 17.0527 68.1484 17.4035 66.8618 17.809C66.3018 17.9771 65.7868 18.269 65.3549 18.6631C64.923 19.0573 64.5853 19.5435 64.3667 20.0858C63.327 23.9918 63.327 28.1018 64.3667 32.0078C64.5853 32.5501 64.923 33.0364 65.3549 33.4305C65.7868 33.8246 66.3018 34.1165 66.8618 34.2846C68.1484 34.6979 70.4018 34.9318 74.3394 34.9942C78.2771 34.9318 80.5305 34.6979 81.817 34.2846C82.377 34.1165 82.8921 33.8246 83.324 33.4305C83.7559 33.0364 84.0936 32.5501 84.3122 32.0078C85.3519 28.1018 85.3519 23.9918 84.3122 20.0858Z" fill="white"/>
<path d="M184.648 26.0507C184.731 28.5998 184.367 31.1438 183.572 33.5673C182.854 35.54 180.383 40 168.414 40C156.445 40 153.965 35.54 153.248 33.5673C151.813 28.6589 151.813 23.4425 153.248 18.5341C153.965 16.5536 156.437 12.1014 168.414 12.1014C180.39 12.1014 182.854 16.5536 183.572 18.5341C184.368 20.9573 184.732 23.5015 184.648 26.0507ZM178.41 20.0858C178.191 19.5435 177.854 19.0573 177.422 18.6631C176.99 18.269 176.475 17.9771 175.915 17.809C174.636 17.4035 172.383 17.1618 168.445 17.1072C164.507 17.0527 162.207 17.4035 160.967 17.809C160.407 17.9771 159.892 18.269 159.46 18.6631C159.028 19.0573 158.691 19.5435 158.472 20.0858C157.422 23.9904 157.422 28.1032 158.472 32.0078C158.691 32.5501 159.028 33.0364 159.46 33.4305C159.892 33.8246 160.407 34.1165 160.967 34.2846C162.246 34.6979 164.5 34.9318 168.445 34.9942C172.344 34.9318 174.636 34.6979 175.915 34.2846C176.475 34.1165 176.99 33.8246 177.422 33.4305C177.854 33.0364 178.191 32.5501 178.41 32.0078C179.46 28.1032 179.46 23.9904 178.41 20.0858Z" fill="#EC1C24"/>
<path d="M54.0976 19.1579C53.8171 17.885 53.2219 16.7028 52.3666 15.7193C51.1555 14.3994 49.569 13.4823 47.8208 13.0916C45.2588 12.5498 42.6408 12.3194 40.0235 12.4054C36.1249 12.4054 33.5361 12.7173 31.7662 13.3801C30.2987 13.9164 29.0453 14.9153 28.195 16.2261C27.2168 14.8641 25.8332 13.8462 24.2418 13.3177C22.4094 12.7017 19.002 12.3976 14.6979 12.3976C11.4698 12.3976 9.23979 12.6237 7.92205 13.0994C6.83166 13.5404 5.84219 14.1983 5.01365 15.0331V13.7076H0.0467758V39.6491H4.99806V23.1345C4.99806 18.8304 9.37234 17.1306 13.7934 17.1306H16.0078C20.4211 17.1306 24.8422 18.8304 24.8422 23.1345V39.6101H29.7934V23.1345C29.7934 18.8304 34.1132 17.1306 38.5342 17.1306H40.7487C45.1697 17.1306 49.5986 18.8304 49.5986 23.1345V39.6101H54.5421V25.4581C54.6216 23.337 54.4884 21.2133 54.1444 19.1189L54.0976 19.1579Z" fill="white"/>
<path d="M251.026 27.9454H253.56C253.599 27.3373 253.615 26.7057 253.615 26.0507C253.699 23.5015 253.335 20.9573 252.539 18.5341C251.821 16.5536 249.35 12.1014 237.381 12.1014C225.412 12.1014 222.932 16.5536 222.215 18.5341C220.78 23.4425 220.78 28.6589 222.215 33.5673C222.932 35.54 225.404 40 237.381 40C249.357 40 251.821 35.54 252.539 33.5673C252.601 33.3957 252.664 33.2086 252.726 33.0293H246.745C246.243 33.6163 245.587 34.0511 244.851 34.2846C243.572 34.6979 241.318 34.9318 237.381 34.9942C233.435 34.9318 231.182 34.6979 229.903 34.2846C229.343 34.1165 228.828 33.8246 228.396 33.4305C227.964 33.0364 227.627 32.5501 227.408 32.0078C226.97 30.7043 226.725 29.3434 226.683 27.9688H251.026V27.9454ZM229.903 17.809C231.182 17.4035 233.435 17.1618 237.381 17.1072C241.326 17.0527 243.572 17.4035 244.851 17.809C245.411 17.9771 245.926 18.269 246.358 18.6631C246.789 19.0573 247.127 19.5435 247.346 20.0858C247.707 21.1144 247.927 22.1872 248.001 23.2749H226.753C226.827 22.1872 227.047 21.1144 227.408 20.0858C227.627 19.5435 227.964 19.0573 228.396 18.6631C228.828 18.269 229.343 17.9771 229.903 17.809Z" fill="#EC1C24"/>
<path d="M128.835 12.3275V39.6102H133.794V12.3275H128.835Z" fill="white"/>
<path d="M124.266 18.5341C123.54 16.5536 121.076 12.1014 109.1 12.1014C104.515 12.1014 101.302 12.7563 99.1036 13.6608V0H94.1523V39.6803H99.1036V38.425C101.334 39.3451 104.515 39.9844 109.1 39.9844C121.076 39.9844 123.54 35.5244 124.266 33.5517C125.7 28.6433 125.7 23.4269 124.266 18.5185V18.5341ZM119.073 32.0078C118.854 32.5501 118.516 33.0364 118.084 33.4305C117.652 33.8246 117.137 34.1165 116.577 34.2846C115.291 34.6979 113.037 34.9318 109.1 34.9942C105.162 34.9318 103.642 34.6979 102.332 34.2846C101.77 34.1175 101.254 33.8261 100.82 33.4319C100.387 33.0377 100.048 32.551 99.8288 32.0078C99.3776 30.6566 99.1331 29.245 99.1036 27.8207V24.2885C99.1326 22.8617 99.377 21.4474 99.8288 20.0936C100.048 19.5504 100.387 19.0637 100.82 18.6695C101.254 18.2753 101.77 17.9839 102.332 17.8168C103.61 17.4113 105.162 17.1696 109.1 17.115C113.037 17.0604 115.291 17.4113 116.577 17.8168C117.137 17.9849 117.652 18.2768 118.084 18.6709C118.516 19.065 118.854 19.5513 119.073 20.0936C120.112 23.9996 120.112 28.1096 119.073 32.0156V32.0078Z" fill="white"/>
</g>
<defs>
<clipPath id="clip0_42_170">
<rect width="253.615" height="40" fill="white"/>
</clipPath>
</defs>
</svg>
